<?xml version="1.0" encoding="utf-8"?>
<!-- Generator: Adobe Illustrator 19.0.0, SVG Export Plug-In . SVG Version: 6.00 Build 0)  -->
<svg version="1.1" id="Layer_1" xmlns="http://www.w3.org/2000/svg" xmlns:xlink="http://www.w3.org/1999/xlink" x="0px" y="0px"
	 viewBox="0 0 480 640" style="enable-background:new 0 0 480 640;" xml:space="preserve">
<style type="text/css">
	.st0{fill:none;}
</style>
<path class="st0" d="M266.7,301.3l-142.3-48.7l-11.3-3l-10.7,5.3l7-156.7h2.7l0.7-20.7h6.7l-0.7-5.7h18.7l14.3,3.3l17,1.7l7.7,2.3
	l18,1l7.3,2.7l27-0.3l61.7,2.7l37,0.3l24,1l13.3-1l29-1.7l9.7,1.3v2.3l14.7-1.3l4,8.3l1.7,9v18v11v26c0,0-5.3,57-5.7,58.3
	s-3.3,49.7-3.3,49.7l-5.7,81v33v32v40l1.7,53.3l0.3,27l-1.3,33l-3.7,13l-10.3,1.3h-62.3H307c0,0-52.3-1.3-54,0
	c-1.7,1.3-50.7,0-50.7,0l-7.7-4.3l-16.7,0.7h-11l-27.7,1l-37,3.3h-2.7V290.7l5.3-0.7l10.3,4.3l20.3,8l21.7,8.7l36.7,11.7l34,13
	l19,6.3l5,1.3l3-4.3l2-8.7l6-18.3L266.7,301.3z"/>
</svg>
