<?xml version="1.0" encoding="utf-8"?>
<!-- Generator: Adobe Illustrator 19.0.0, SVG Export Plug-In . SVG Version: 6.00 Build 0)  -->
<svg version="1.1" id="Layer_1" xmlns="http://www.w3.org/2000/svg" xmlns:xlink="http://www.w3.org/1999/xlink" x="0px" y="0px"
	 viewBox="0 0 480 640" style="enable-background:new 0 0 480 640;" xml:space="preserve">
<style type="text/css">
	.st0{fill:none;}
</style>
<polygon id="XMLID_3_" class="st0" points="402,85 387,85 370,85 367.3,87 355,87 317,87 313,86 305.5,85.6 288.6,85.1 284.9,84 
	267,84 231.8,83 201,83 191.7,80.5 177.3,79.1 167.1,76.6 147.1,73.5 139.3,72 113,72 101.5,72.9 88.6,73.5 73.5,74.9 71.6,78.5 
	64.8,78.3 63.9,82.6 63,100.3 63,120 62.2,135.1 61.1,152.3 60,172.3 59,190.6 59,204 59,217 58.7,231.3 57.6,231.8 57.3,245.5 
	57,274.4 56.7,287.7 55.3,288.2 54.6,308.9 53.8,310.4 53,345.9 53,375 54.1,395.2 53.9,401.4 54.9,405.3 55.2,455.6 54.4,477.4 
	53.8,495.8 53.5,530.5 51.5,576.8 50,577.7 50,583 54.7,583.1 56.9,584 72,584 73.8,582.3 96.6,581.8 97.9,583.1 101.4,582 
	115.3,581.5 123.3,580.4 135.4,579.1 136,578.5 163.7,577.1 168.8,576.8 189,578.5 200,577.8 210.5,580 212.5,579.3 214.8,579.8 
	221.5,578.8 226.3,580.5 252,580.3 255,581.5 258.5,578.8 262,579.8 263.5,581 274,580.5 280.3,579.3 287.3,579.8 301.3,579.5 
	311.5,580.5 314.8,579 318.5,580.5 338.5,580.3 343,579.8 348.8,581.3 359,580 363.5,579.3 374.5,580.3 377.5,580 383.8,581 
	391.5,582 398,582 398.3,579 402,579 405.9,577.1 407.9,573.3 412,566.1 415,553 415,328 415,247 420.5,196.5 423,141 423,105 
	422,90.5 419.8,88.1 416.3,85.2 411.9,84.9 "/>
</svg>
